<?xml version="1.0" standalone="no"?>
<!DOCTYPE svg PUBLIC "-//W3C//DTD SVG 20010904//EN"
 "http://www.w3.org/TR/2001/REC-SVG-20010904/DTD/svg10.dtd">
<svg version="1.0" xmlns="http://www.w3.org/2000/svg"
 width="800.000000pt" height="180.000000pt" viewBox="0 0 800.000000 180.000000"
 preserveAspectRatio="xMidYMid meet">

<g transform="translate(0.000000,180.000000) scale(0.100000,-0.100000)"
fill="#000000" stroke="none">
<path d="M0 900 l0 -900 4000 0 4000 0 0 900 0 900 -4000 0 -4000 0 0 -900z
m3161 873 c-1 -4 -6 -8 -13 -8 -6 0 -13 -6 -16 -14 -3 -10 0 -11 9 -5 8 4 1
-8 -16 -28 -16 -19 -33 -33 -37 -31 -8 4 -9 -8 -8 -100 l0 -68 -140 -172 -141
-172 128 -6 c70 -4 129 -7 129 -8 1 0 7 -14 14 -31 15 -36 25 -38 41 -7 6 12
21 32 32 45 20 22 23 22 283 22 188 0 265 3 270 12 8 12 268 6 529 -12 224
-16 221 -15 253 -63 40 -58 37 -72 -17 -96 -54 -22 -242 -81 -355 -110 -44
-12 -81 -23 -83 -25 -5 -4 152 -68 262 -106 44 -15 88 -31 97 -35 16 -6 16 -5
2 25 -9 17 -14 32 -13 34 2 1 38 15 80 30 l75 27 75 153 74 154 60 6 c33 3
170 10 305 16 229 10 398 23 497 37 50 7 55 -4 35 -92 -20 -90 -26 -99 -68
-114 -153 -54 -144 -48 -144 -94 0 -23 -13 -73 -29 -112 -16 -38 -27 -71 -26
-73 2 -2 60 34 129 81 l127 84 120 191 c66 104 126 193 134 196 12 4 15 -3 13
-39 -2 -25 -6 -45 -10 -45 -12 0 -9 -22 7 -54 19 -37 19 -40 -8 -84 -36 -57
-175 -306 -230 -412 -27 -52 -50 -97 -52 -98 -7 -8 -105 54 -108 68 -2 8 3 28
11 43 7 16 12 30 10 32 -2 2 -52 -30 -111 -71 -60 -40 -111 -74 -114 -74 -3 0
-22 13 -43 30 -58 46 -58 63 0 202 28 66 49 122 46 125 -7 7 -569 -177 -584
-191 -7 -7 -59 -107 -116 -223 -73 -147 -111 -215 -128 -224 -12 -6 -51 -33
-86 -58 -53 -39 -69 -57 -98 -117 -36 -76 -49 -91 -75 -91 -11 0 14 62 99 241
207 438 213 452 198 465 -15 13 -26 4 -26 -20 0 -9 -23 -38 -52 -64 -46 -42
-55 -46 -86 -40 -45 8 -349 121 -482 179 l-104 45 -34 -72 c-36 -75 -97 -215
-113 -256 l-10 -24 -36 34 c-19 19 -42 49 -50 67 -13 31 -12 37 26 120 87 195
181 404 181 406 0 6 -237 -7 -245 -14 -6 -5 -48 -12 -93 -16 -49 -4 -83 -12
-86 -19 -3 -10 32 -11 156 -7 l159 5 -16 -39 c-9 -21 -22 -45 -29 -52 -7 -7
-70 -19 -152 -27 -199 -21 -197 -21 -218 -56 -10 -17 -16 -33 -13 -35 3 -3 86
8 184 25 99 17 184 31 190 31 16 0 -1 -67 -24 -98 -16 -22 -35 -28 -134 -45
-62 -10 -172 -34 -244 -52 l-130 -34 -39 28 c-65 46 -64 57 11 163 107 152
105 148 56 113 -46 -33 -174 -127 -411 -303 -85 -62 -160 -116 -169 -119 -23
-9 -183 104 -183 130 0 22 55 99 229 317 133 166 452 537 464 538 38 5 95 64
169 175 35 54 82 90 79 60z m-1149 -229 c50 -33 67 -49 59 -57 -7 -7 -7 -15
-1 -22 7 -8 -11 -21 -59 -45 -62 -29 -74 -32 -124 -26 l-55 7 -364 -201 c-200
-111 -367 -207 -373 -212 -7 -7 37 -8 135 -3 80 3 235 10 345 15 110 5 217 14
237 21 36 12 39 11 82 -24 24 -21 52 -37 62 -37 19 0 54 -36 54 -57 0 -8 -14
-31 -30 -52 l-30 -37 -98 -2 c-53 -1 -119 -4 -147 -7 -128 -14 -861 -48 -1040
-50 -78 0 -83 2 -197 58 -65 32 -118 62 -118 67 0 11 25 17 90 23 46 4 230 72
240 88 3 5 84 45 180 89 506 235 631 294 695 330 105 60 297 153 322 156 12 1
30 7 40 13 10 6 19 11 21 11 2 0 35 -21 74 -46z m5371 -115 c-6 -6 -9 -17 -6
-24 2 -8 -5 -19 -16 -25 -12 -6 -37 -32 -55 -57 -27 -37 -55 -57 -139 -102
-309 -163 -457 -243 -462 -251 -2 -4 32 -30 78 -57 72 -43 82 -52 81 -77 -1
-20 5 -31 22 -38 13 -6 26 -19 29 -30 7 -19 100 -76 464 -283 123 -70 229
-132 235 -139 21 -23 36 -56 36 -80 0 -25 0 -25 -87 21 -334 175 -843 449
-868 468 -37 27 -212 125 -222 125 -5 0 -42 -63 -84 -141 l-76 -140 -43 33
c-68 52 -70 60 -32 129 18 33 30 65 27 70 -3 5 42 99 102 208 82 153 110 198
121 192 8 -5 45 -6 83 -3 l68 5 -8 -29 c-4 -16 -22 -57 -40 -91 -17 -35 -27
-63 -23 -63 8 0 462 219 712 343 102 50 126 59 103 36z m2 -129 c3 -5 1 -10
-4 -10 -6 0 -11 5 -11 10 0 6 2 10 4 10 3 0 8 -4 11 -10z m-5270 -144 c-13
-123 -14 -156 -7 -156 4 0 59 43 122 95 l115 94 94 1 c79 0 92 -2 82 -14 -7
-8 -8 -16 -2 -18 9 -3 -101 -139 -483 -599 -139 -168 -175 -206 -205 -215 -66
-20 -161 -77 -199 -118 -20 -23 -40 -40 -44 -39 -5 2 -7 -1 -5 -6 4 -16 -58
-89 -75 -88 -10 1 -18 2 -18 4 0 1 39 50 87 109 47 59 144 183 214 275 180
238 186 245 259 328 36 41 57 72 47 68 -13 -5 -30 4 -58 31 -45 42 -58 82 -59
188 0 60 1 62 38 86 67 46 76 49 89 31 7 -9 10 -33 8 -57z m3815 15 c0 -5 10
-11 23 -13 19 -3 26 -18 54 -118 17 -63 34 -128 38 -144 8 -37 11 -33 81 94
104 191 94 180 169 180 59 0 65 -2 65 -20 0 -12 -60 -129 -132 -261 l-133
-240 -55 3 -55 3 -22 85 c-11 47 -24 98 -27 113 -3 16 -10 26 -15 23 -5 -3
-34 -50 -65 -105 -61 -107 -49 -99 -162 -116 -40 -6 -41 -6 -39 24 1 16 35 89
75 163 41 73 98 179 128 236 47 90 72 122 72 93z m-2904 -798 c-8 -15 -15 -25
-16 -21 0 12 23 58 27 54 3 -2 -2 -17 -11 -33z m38 -157 c-48 -102 -89 -184
-91 -182 -2 2 35 88 83 190 48 102 89 185 91 183 2 -2 -36 -88 -83 -191z m112
2 c-47 -100 -90 -184 -95 -186 -6 -2 26 74 70 168 94 203 99 213 106 207 2 -3
-34 -88 -81 -189z m194 184 c0 -21 -168 -366 -180 -370 -7 -3 -11 -1 -8 4 2 5
42 91 89 191 74 161 99 205 99 175z m33 -174 c-85 -184 -98 -207 -108 -196
-10 10 167 378 181 378 8 0 -20 -71 -73 -182z m174 133 c-113 -252 -153 -330
-169 -331 -14 0 -7 20 34 108 28 59 67 144 88 190 24 51 45 82 54 82 13 0 12
-8 -7 -49z m130 42 c-2 -5 -41 -90 -87 -190 -63 -138 -89 -183 -102 -183 -21
0 -27 -16 82 219 56 121 79 161 93 161 10 0 16 -3 14 -7z m110 -5 c-3 -7 -42
-93 -88 -190 -63 -136 -87 -178 -101 -178 -10 0 -18 2 -18 5 0 3 39 89 86 190
70 148 91 185 106 185 12 0 18 -5 15 -12z m113 7 c0 -3 -38 -87 -84 -188 -75
-160 -88 -182 -110 -185 l-25 -3 44 95 c25 53 65 139 89 191 35 75 49 95 65
95 12 0 21 -2 21 -5z m110 -3 c0 -4 -38 -89 -84 -187 -75 -162 -86 -180 -110
-183 l-26 -3 24 53 c126 280 151 328 173 328 13 0 23 -4 23 -8z m31 -179 c-79
-171 -89 -188 -114 -191 -15 -2 -27 -1 -27 3 0 3 39 89 86 190 82 175 88 185
115 185 l28 0 -88 -187z m165 115 c-145 -319 -138 -307 -173 -308 l-32 0 51
108 c28 59 67 144 88 190 36 76 41 82 69 82 l30 0 -33 -72z m364 65 c0 -5 -39
-89 -85 -188 l-84 -180 -40 -3 -40 -3 55 118 c31 65 71 151 90 191 32 70 34
72 68 72 20 0 36 -3 36 -7z m1976 -8 c-4 -13 32 -15 278 -17 l283 -3 -70 -152
-71 -153 -782 0 c-773 0 -782 0 -787 -20 -5 -20 -14 -20 -486 -20 l-481 0 12
29 c7 16 47 101 88 190 l75 161 974 0 c856 0 972 -2 967 -15z m-3620 -172 c-8
-15 -15 -25 -16 -21 0 12 23 58 27 54 3 -2 -2 -17 -11 -33z m1398 -112 c-35
-78 -38 -81 -70 -81 -19 0 -34 2 -34 5 0 2 9 24 21 47 19 38 107 124 117 114
2 -2 -13 -40 -34 -85z m-1468 -38 c-8 -15 -15 -25 -16 -21 0 12 23 58 27 54 3
-2 -2 -17 -11 -33z"/>
<path d="M3766 1050 c-20 -51 -21 -46 14 -58 24 -9 59 -3 199 34 94 24 174 45
178 45 33 6 -118 17 -233 18 l-142 1 -16 -40z"/>
<path d="M4985 1064 c-88 -7 -166 -13 -172 -13 -12 -1 -78 -119 -71 -126 4 -4
342 97 433 129 l70 25 -50 -1 c-27 0 -122 -6 -210 -14z"/>
<path d="M2634 977 c-32 -39 -77 -93 -99 -121 -39 -50 -39 -50 -9 -31 95 62
305 208 302 210 -2 1 -33 5 -69 7 l-65 5 -60 -70z"/>
<path d="M4630 225 l0 -115 60 0 c47 0 60 3 60 15 0 11 -12 15 -45 15 -45 0
-45 0 -45 34 0 33 2 35 38 38 20 2 37 8 37 13 0 6 -17 11 -37 13 -36 3 -38 5
-38 38 0 34 0 34 45 34 33 0 45 4 45 15 0 12 -13 15 -60 15 l-60 0 0 -115z"/>
<path d="M4837 333 c-4 -3 -7 -55 -7 -115 l0 -108 48 0 c71 0 87 21 87 117 0
67 -3 77 -24 94 -23 18 -90 26 -104 12z m93 -42 c14 -27 13 -124 -2 -139 -7
-7 -25 -12 -40 -12 l-28 0 0 85 0 85 30 0 c19 0 33 -7 40 -19z"/>
<path d="M5076 319 c-24 -19 -26 -26 -26 -95 0 -85 18 -114 69 -114 42 0 61
24 61 76 0 42 -1 44 -30 44 -34 0 -40 -15 -10 -23 24 -6 26 -39 4 -61 -19 -19
-25 -20 -48 -3 -14 10 -16 25 -14 81 3 80 19 99 62 76 35 -18 47 -3 17 21 -30
24 -52 24 -85 -2z"/>
<path d="M5277 333 c-4 -3 -7 -55 -7 -115 l0 -108 60 0 c47 0 60 3 60 15 0 11
-12 15 -45 15 -45 0 -45 0 -45 35 0 34 1 35 40 35 29 0 40 4 40 15 0 11 -11
15 -40 15 -39 0 -40 1 -40 35 0 35 0 35 45 35 33 0 45 4 45 15 0 11 -13 15
-53 15 -30 0 -57 -3 -60 -7z"/>
<path d="M5480 225 c0 -70 4 -115 10 -115 6 0 10 23 10 51 0 46 2 50 21 47 15
-2 27 -17 39 -48 10 -25 25 -46 34 -48 14 -3 14 2 -4 47 -20 51 -20 51 0 71
23 23 25 39 9 74 -12 26 -35 36 -86 36 l-33 0 0 -115z m96 58 c8 -30 -17 -56
-51 -51 -15 2 -21 12 -23 41 -3 36 -3 37 32 37 30 0 37 -4 42 -27z"/>
<path d="M5697 333 c-4 -3 -7 -46 -7 -95 0 -75 3 -91 20 -108 24 -24 72 -26
94 -5 28 29 36 204 9 213 -10 3 -13 -19 -13 -86 0 -69 -4 -94 -16 -106 -19
-20 -29 -20 -48 0 -12 12 -16 37 -16 105 0 82 -5 100 -23 82z"/>
<path d="M5920 226 c0 -71 4 -116 10 -116 6 0 10 33 10 78 1 71 2 76 16 57 9
-11 29 -46 45 -77 46 -92 59 -80 59 57 0 96 -3 115 -15 115 -12 0 -15 -16 -15
-82 l0 -83 -43 79 c-23 44 -48 81 -55 84 -9 3 -12 -25 -12 -112z"/>
<path d="M6150 225 c0 -96 3 -115 15 -115 12 0 15 15 15 78 l1 77 42 -77 c23
-43 48 -78 55 -78 9 0 12 30 12 115 0 133 -18 158 -22 33 l-3 -83 -45 82 c-25
46 -51 83 -57 83 -10 0 -13 -30 -13 -115z"/>
<path d="M6384 327 c-2 -7 -3 -58 -2 -113 l3 -99 58 0 c67 0 78 19 12 23 -44
3 -45 4 -45 38 0 33 1 34 40 34 29 0 40 4 40 15 0 11 -11 15 -40 15 -39 0 -40
1 -40 34 0 34 1 35 48 38 64 4 55 22 -13 26 -40 2 -57 -1 -61 -11z"/>
<path d="M6590 225 c0 -96 3 -115 15 -115 11 0 15 12 15 50 0 41 3 50 18 50
12 0 23 -16 35 -50 10 -29 24 -50 32 -50 19 0 19 0 -4 52 -18 43 -18 44 0 67
44 53 9 111 -66 111 l-45 0 0 -115z m98 57 c5 -30 -14 -52 -44 -52 -21 0 -24
5 -24 41 0 39 1 40 33 37 25 -2 33 -8 35 -26z"/>
<path d="M6822 320 c-38 -36 -23 -81 36 -105 42 -18 51 -30 45 -55 -7 -27 -32
-33 -60 -14 -19 12 -28 13 -37 4 -16 -16 19 -40 60 -40 44 0 66 24 62 69 -3
32 -8 38 -50 59 -48 22 -56 35 -39 61 6 9 20 11 50 6 44 -7 56 6 22 25 -31 16
-65 12 -89 -10z"/>
</g>
</svg>
